<mxfile host="65bd71144e">
    <diagram id="ElotmaAK5wtQi5tu3Q-J" name="ページ1">
        <mxGraphModel dx="1087" dy="571" grid="1" gridSize="10" guides="1" tooltips="1" connect="1" arrows="1" fold="1" page="1" pageScale="1" pageWidth="827" pageHeight="1169" background="#ffffff" math="0" shadow="0">
            <root>
                <mxCell id="0"/>
                <mxCell id="1" parent="0"/>
                <mxCell id="2" value="" style="rounded=1;arcSize=10;dashed=0;fillColor=#ffe6cc;strokeWidth=2;strokeColor=#d79b00;" parent="1" vertex="1">
                    <mxGeometry x="30" y="538" width="770" height="492" as="geometry"/>
                </mxCell>
                <mxCell id="9" value="" style="rounded=1;arcSize=10;dashed=1;strokeColor=#F59D56;fillColor=none;gradientColor=none;dashPattern=8 4;strokeWidth=2;" parent="1" vertex="1">
                    <mxGeometry x="419.75" y="585" width="260" height="395.5" as="geometry"/>
                </mxCell>
                <mxCell id="8" value="" style="rounded=1;arcSize=10;dashed=1;strokeColor=#F59D56;fillColor=none;gradientColor=none;dashPattern=8 4;strokeWidth=2;" parent="1" vertex="1">
                    <mxGeometry x="100" y="584.5" width="260" height="395.5" as="geometry"/>
                </mxCell>
                <mxCell id="3" value="" style="dashed=0;html=1;shape=mxgraph.aws3.virtual_private_cloud;fillColor=#F58536;gradientColor=none;dashed=0;" parent="1" vertex="1">
                    <mxGeometry x="40" y="511" width="100" height="60" as="geometry"/>
                </mxCell>
                <mxCell id="4" value="" style="rounded=1;arcSize=10;strokeColor=#666666;fillColor=#f5f5f5;fontColor=#333333;" parent="1" vertex="1">
                    <mxGeometry x="130" y="600" width="199.5" height="160" as="geometry"/>
                </mxCell>
                <mxCell id="5" value="" style="rounded=1;arcSize=10;strokeColor=#666666;fillColor=#f5f5f5;fontColor=#333333;" parent="1" vertex="1">
                    <mxGeometry x="130" y="800" width="199.5" height="160" as="geometry"/>
                </mxCell>
                <mxCell id="6" value="" style="rounded=1;arcSize=10;strokeColor=#666666;fillColor=#f5f5f5;fontColor=#333333;" parent="1" vertex="1">
                    <mxGeometry x="450" y="600" width="199.5" height="160" as="geometry"/>
                </mxCell>
                <mxCell id="7" value="" style="rounded=1;arcSize=10;strokeColor=#666666;fillColor=#f5f5f5;fontColor=#333333;" parent="1" vertex="1">
                    <mxGeometry x="450" y="800" width="199.5" height="160" as="geometry"/>
                </mxCell>
                <mxCell id="14" style="edgeStyle=none;html=1;exitX=0;exitY=0.5;exitDx=0;exitDy=0;exitPerimeter=0;strokeWidth=5;strokeColor=#FF6666;entryX=0.5;entryY=0;entryDx=0;entryDy=0;" parent="1" source="10" target="11" edge="1">
                    <mxGeometry relative="1" as="geometry"/>
                </mxCell>
                <mxCell id="17" style="edgeStyle=none;html=1;exitX=1;exitY=0.5;exitDx=0;exitDy=0;exitPerimeter=0;entryX=0.5;entryY=0;entryDx=0;entryDy=0;strokeColor=#FF6666;strokeWidth=5;" parent="1" source="10" target="12" edge="1">
                    <mxGeometry relative="1" as="geometry"/>
                </mxCell>
                <mxCell id="10" value="" style="outlineConnect=0;dashed=0;verticalLabelPosition=bottom;verticalAlign=top;align=center;html=1;shape=mxgraph.aws3.vpc_peering;fillColor=#F58534;gradientColor=none;" parent="1" vertex="1">
                    <mxGeometry x="360" y="511" width="69" height="72" as="geometry"/>
                </mxCell>
                <mxCell id="16" style="edgeStyle=none;html=1;exitX=0.5;exitY=0;exitDx=0;exitDy=0;strokeColor=#FF6666;strokeWidth=5;" parent="1" source="11" edge="1">
                    <mxGeometry relative="1" as="geometry">
                        <mxPoint x="360" y="550" as="targetPoint"/>
                    </mxGeometry>
                </mxCell>
                <mxCell id="11" value="" style="rounded=1;arcSize=10;strokeColor=#b85450;fillColor=#f8cecc;" parent="1" vertex="1">
                    <mxGeometry x="230" y="690" width="119.5" height="59.5" as="geometry"/>
                </mxCell>
                <mxCell id="18" style="edgeStyle=none;html=1;exitX=0.5;exitY=0;exitDx=0;exitDy=0;entryX=1;entryY=0.5;entryDx=0;entryDy=0;entryPerimeter=0;strokeColor=#FF6666;strokeWidth=5;" parent="1" source="12" target="10" edge="1">
                    <mxGeometry relative="1" as="geometry"/>
                </mxCell>
                <mxCell id="12" value="" style="rounded=1;arcSize=10;strokeColor=#b85450;fillColor=#f8cecc;" parent="1" vertex="1">
                    <mxGeometry x="429" y="690" width="119.5" height="59.5" as="geometry"/>
                </mxCell>
                <mxCell id="20" style="edgeStyle=none;html=1;exitX=0.5;exitY=0;exitDx=0;exitDy=0;strokeColor=#FF6666;strokeWidth=5;entryX=0.29;entryY=0.861;entryDx=0;entryDy=0;entryPerimeter=0;" parent="1" source="13" target="19" edge="1">
                    <mxGeometry relative="1" as="geometry"/>
                </mxCell>
                <mxCell id="13" value="" style="rounded=1;arcSize=10;strokeColor=#b85450;fillColor=#f8cecc;" parent="1" vertex="1">
                    <mxGeometry x="419.75" y="870" width="119.5" height="59.5" as="geometry"/>
                </mxCell>
                <mxCell id="19" value="" style="outlineConnect=0;dashed=0;verticalLabelPosition=bottom;verticalAlign=top;align=center;html=1;shape=mxgraph.aws3.vpc_nat_gateway;fillColor=#F58534;gradientColor=none;" parent="1" vertex="1">
                    <mxGeometry x="620" y="678" width="69" height="72" as="geometry"/>
                </mxCell>
                <mxCell id="21" value="インターネットゲートウェイ" style="text;strokeColor=none;align=center;fillColor=none;html=1;verticalAlign=middle;whiteSpace=wrap;rounded=0;fontColor=#000000;fontStyle=1" parent="1" vertex="1">
                    <mxGeometry x="300" y="478" width="200" height="30" as="geometry"/>
                </mxCell>
                <mxCell id="22" value="ルートテーブル" style="text;strokeColor=none;align=center;fillColor=none;html=1;verticalAlign=middle;whiteSpace=wrap;rounded=0;fontColor=#000000;fontStyle=1" parent="1" vertex="1">
                    <mxGeometry x="240" y="704.75" width="100" height="30" as="geometry"/>
                </mxCell>
                <mxCell id="23" value="ルートテーブル" style="text;strokeColor=none;align=center;fillColor=none;html=1;verticalAlign=middle;whiteSpace=wrap;rounded=0;fontColor=#000000;fontStyle=1" parent="1" vertex="1">
                    <mxGeometry x="438.75" y="704.75" width="100" height="30" as="geometry"/>
                </mxCell>
                <mxCell id="24" value="ルートテーブル" style="text;strokeColor=none;align=center;fillColor=none;html=1;verticalAlign=middle;whiteSpace=wrap;rounded=0;fontColor=#000000;fontStyle=1" parent="1" vertex="1">
                    <mxGeometry x="429.5" y="884.75" width="100" height="30" as="geometry"/>
                </mxCell>
                <mxCell id="25" value="AZ" style="text;strokeColor=none;align=center;fillColor=none;html=1;verticalAlign=middle;whiteSpace=wrap;rounded=0;fontColor=#000000;fontStyle=1" parent="1" vertex="1">
                    <mxGeometry x="199.75" y="560" width="60" height="30" as="geometry"/>
                </mxCell>
                <mxCell id="26" value="AZ" style="text;strokeColor=none;align=center;fillColor=none;html=1;verticalAlign=middle;whiteSpace=wrap;rounded=0;fontColor=#000000;fontStyle=1" parent="1" vertex="1">
                    <mxGeometry x="519.75" y="560" width="60" height="30" as="geometry"/>
                </mxCell>
                <mxCell id="27" value="パブリックサブネット" style="text;strokeColor=none;align=center;fillColor=none;html=1;verticalAlign=middle;whiteSpace=wrap;rounded=0;fontColor=#000000;" parent="1" vertex="1">
                    <mxGeometry x="139.75" y="600" width="130.25" height="30" as="geometry"/>
                </mxCell>
                <mxCell id="28" value="パブリックサブネット" style="text;strokeColor=none;align=center;fillColor=none;html=1;verticalAlign=middle;whiteSpace=wrap;rounded=0;fontColor=#000000;" parent="1" vertex="1">
                    <mxGeometry x="470" y="600" width="130.25" height="30" as="geometry"/>
                </mxCell>
                <mxCell id="29" value="プライベートサブネット" style="text;strokeColor=none;align=center;fillColor=none;html=1;verticalAlign=middle;whiteSpace=wrap;rounded=0;fontColor=#000000;" parent="1" vertex="1">
                    <mxGeometry x="140" y="803" width="160" height="30" as="geometry"/>
                </mxCell>
                <mxCell id="30" value="プライベートサブネット" style="text;strokeColor=none;align=center;fillColor=none;html=1;verticalAlign=middle;whiteSpace=wrap;rounded=0;fontColor=#000000;" parent="1" vertex="1">
                    <mxGeometry x="470" y="803" width="140" height="30" as="geometry"/>
                </mxCell>
                <mxCell id="31" value="NATゲートウェイ" style="text;strokeColor=none;align=center;fillColor=none;html=1;verticalAlign=middle;whiteSpace=wrap;rounded=0;fontColor=#000000;" parent="1" vertex="1">
                    <mxGeometry x="602.25" y="648" width="104.5" height="30" as="geometry"/>
                </mxCell>
                <mxCell id="32" value="10.0.0.0/24" style="text;strokeColor=none;align=center;fillColor=none;html=1;verticalAlign=middle;whiteSpace=wrap;rounded=0;fontColor=#000000;" parent="1" vertex="1">
                    <mxGeometry x="139" y="623" width="80" height="30" as="geometry"/>
                </mxCell>
                <mxCell id="33" value="10.0.2.0/24" style="text;strokeColor=none;align=center;fillColor=none;html=1;verticalAlign=middle;whiteSpace=wrap;rounded=0;fontColor=#000000;" parent="1" vertex="1">
                    <mxGeometry x="480" y="623" width="80" height="30" as="geometry"/>
                </mxCell>
                <mxCell id="34" value="10.0.1.0/24" style="text;strokeColor=none;align=center;fillColor=none;html=1;verticalAlign=middle;whiteSpace=wrap;rounded=0;fontColor=#000000;" parent="1" vertex="1">
                    <mxGeometry x="150" y="830" width="80" height="30" as="geometry"/>
                </mxCell>
                <mxCell id="35" value="10.0.3.0/24" style="text;strokeColor=none;align=center;fillColor=none;html=1;verticalAlign=middle;whiteSpace=wrap;rounded=0;fontColor=#000000;" parent="1" vertex="1">
                    <mxGeometry x="470" y="820" width="80" height="30" as="geometry"/>
                </mxCell>
            </root>
        </mxGraphModel>
    </diagram>
</mxfile>